<svg id="icons" enable-background="new 0 0 64 64" height="512" viewBox="0 0 64 64" width="512" xmlns="http://www.w3.org/2000/svg"><path d="m59.75 2.5h-52c-1.66 0-3 1.34-3 3v4h2.5c.83 0 1.5.67 1.5 1.5s-.67 1.5-1.5 1.5h-2.5v6h2.5c.83 0 1.5.67 1.5 1.5s-.67 1.5-1.5 1.5h-2.5v6h2.5c.83 0 1.5.67 1.5 1.5s-.67 1.5-1.5 1.5h-2.5v6h2.5c.83 0 1.5.67 1.5 1.5s-.67 1.5-1.5 1.5h-2.5v6h2.5c.83 0 1.5.67 1.5 1.5s-.67 1.5-1.5 1.5h-2.5v10c0-1.66 1.34-3 3-3h50 2c1.66 0 3-1.34 3-3v-47c0-1.66-1.34-3-3-3z" fill="#da4453"/><path d="m57.75 49.5c0 .55-.45 1-1 1h-42c-.55 0-1-.45-1-1v-41c0-.55.45-1 1-1h42c.55 0 1 .45 1 1z" fill="#5d9cec"/><path d="m57.75 55.5v6h-50c-1.66 0-3-1.34-3-3s1.34-3 3-3z" fill="#e6e9ed"/><path d="m24.75 16.5c1.109 0 2 .9 2 2 0 1.11-.891 2-2 2-1.1 0-2-.89-2-2 0-1.1.9-2 2-2z" fill="#ffce54"/><path d="m59.75 55.5c1.66 0 3-1.34 3-3v6c0 1.66-1.34 3-3 3h-2v-6z" fill="#da4453"/><path d="m62.75 53.5c-.553 0-1-.447-1-1v-47c0-.552.447-1 1-1s1 .448 1 1v47c0 .553-.447 1-1 1z" fill="#da4453"/><path d="m4.75 10.5c-.553 0-1-.448-1-1v-4c0-.552.447-1 1-1s1 .448 1 1v4c0 .552-.447 1-1 1z" fill="#da4453"/><path d="m4.75 19.5c-.553 0-1-.448-1-1v-6c0-.552.447-1 1-1s1 .448 1 1v6c0 .552-.447 1-1 1z" fill="#da4453"/><path d="m4.75 28.5c-.553 0-1-.448-1-1v-6c0-.552.447-1 1-1s1 .448 1 1v6c0 .552-.447 1-1 1z" fill="#da4453"/><path d="m4.75 37.5c-.553 0-1-.447-1-1v-6c0-.552.447-1 1-1s1 .448 1 1v6c0 .553-.447 1-1 1z" fill="#da4453"/><path d="m4.75 46.5c-.553 0-1-.447-1-1v-6c0-.553.447-1 1-1s1 .447 1 1v6c0 .553-.447 1-1 1z" fill="#da4453"/><path d="m4.75 59.5c-.553 0-1-.447-1-1v-10c0-.553.447-1 1-1s1 .447 1 1v10c0 .553-.447 1-1 1z" fill="#da4453"/><path d="m7.75 62.5c-2.206 0-4-1.794-4-4s1.794-4 4-4c.553 0 1 .447 1 1s-.447 1-1 1c-1.103 0-2 .897-2 2s.897 2 2 2c.553 0 1 .447 1 1s-.447 1-1 1z" fill="#ed5565"/><path d="m4.75 6.5c-.553 0-1-.448-1-1 0-2.206 1.794-4 4-4 .553 0 1 .448 1 1s-.447 1-1 1c-1.103 0-2 .897-2 2 0 .552-.447 1-1 1z" fill="#da4453"/><path d="m62.75 6.5c-.553 0-1-.448-1-1 0-1.103-.897-2-2-2-.553 0-1-.448-1-1s.447-1 1-1c2.206 0 4 1.794 4 4 0 .552-.447 1-1 1z" fill="#da4453"/><path d="m59.75 62.5c-.553 0-1-.447-1-1s.447-1 1-1c1.103 0 2-.897 2-2 0-.553.447-1 1-1s1 .447 1 1c0 2.206-1.794 4-4 4z" fill="#da4453"/><path d="m59.75 56.5h-52c-.553 0-1-.447-1-1s.447-1 1-1h52c.553 0 1 .447 1 1s-.447 1-1 1z" fill="#ed5565"/><path d="m62.75 59.5c-.553 0-1-.447-1-1v-6c0-.553.447-1 1-1s1 .447 1 1v6c0 .553-.447 1-1 1z" fill="#da4453"/><path d="m59.75 3.5h-52c-.553 0-1-.448-1-1s.447-1 1-1h52c.553 0 1 .448 1 1s-.447 1-1 1z" fill="#da4453"/><g fill="#ffce54"><path d="m24.753 21.5c-1.654 0-3-1.346-3-3s1.346-3 3-3 3 1.346 3 3-1.346 3-3 3zm0-4c-.552 0-1 .449-1 1s.448 1 1 1 1-.449 1-1-.448-1-1-1z"/><path d="m24.753 14.5c-.553 0-1-.448-1-1v-1c0-.552.447-1 1-1s1 .448 1 1v1c0 .553-.447 1-1 1z"/><path d="m24.753 25.5c-.553 0-1-.448-1-1v-1c0-.552.447-1 1-1s1 .448 1 1v1c0 .553-.447 1-1 1z"/><path d="m21.217 15.964c-.256 0-.512-.098-.707-.293l-.707-.707c-.391-.391-.391-1.023 0-1.414s1.023-.391 1.414 0l.707.707c.391.391.391 1.023 0 1.414-.195.196-.451.293-.707.293z"/><path d="m28.995 23.743c-.256 0-.512-.098-.707-.293l-.707-.707c-.391-.391-.391-1.023 0-1.414s1.023-.391 1.414 0l.707.707c.391.391.391 1.023 0 1.414-.195.195-.451.293-.707.293z"/><path d="m19.751 19.5h-1c-.553 0-1-.448-1-1s.447-1 1-1h1c.553 0 1 .448 1 1s-.447 1-1 1z"/><path d="m30.751 19.5h-1c-.553 0-1-.448-1-1s.447-1 1-1h1c.553 0 1 .448 1 1s-.447 1-1 1z"/><path d="m20.509 23.745c-.256 0-.512-.098-.707-.293-.391-.391-.391-1.023 0-1.414l.707-.707c.391-.391 1.023-.391 1.414 0s.391 1.023 0 1.414l-.707.707c-.195.195-.451.293-.707.293z"/><path d="m28.286 15.965c-.256 0-.512-.098-.707-.293-.391-.391-.391-1.023 0-1.414l.707-.707c.391-.391 1.023-.391 1.414 0s.391 1.023 0 1.414l-.707.707c-.195.196-.451.293-.707.293z"/></g><path d="m29.113 32.997c-.01-.017-.026-.025-.037-.042-.036-.056-.085-.102-.133-.15-.048-.047-.092-.094-.146-.13-.017-.011-.025-.028-.043-.038-.039-.023-.083-.025-.124-.042-.063-.026-.123-.052-.19-.064-.063-.013-.125-.013-.189-.013-.063 0-.125 0-.189.013-.066.013-.126.038-.188.063-.042.018-.086.02-.126.043-.018.01-.027.028-.044.039-.054.035-.097.082-.144.127-.049.049-.098.095-.135.152-.011.016-.027.024-.037.041l-10.212 17.504h11.151l4.392-7.619c.152.087.324.134.499.134.171 0 .345-.044.503-.137.477-.277.638-.891.359-1.367z" fill="#e6e9ed"/><path d="m63.608 51.499c-.446 1.722-1.996 2.999-3.858 2.999v2.002c2.21 0 4-1.79 4-4 0-.348-.059-.68-.142-1.001z" fill="#ed5565"/><path d="m63.608 57.499c-.446 1.722-1.996 2.999-3.858 2.999v2.002c2.21 0 4-1.79 4-4 0-.348-.059-.68-.142-1.001z" fill="#ed5565"/><path d="m59.75 62.5h-52c-.553 0-1-.447-1-1s.447-1 1-1h52c.553 0 1 .447 1 1s-.447 1-1 1z" fill="#ed5565"/><path d="m2.25 13h5c1.103 0 2-.897 2-2s-.897-2-2-2h-5c-1.103 0-2 .897-2 2s.897 2 2 2z" fill="#e6e9ed"/><path d="m7.25 18h-5c-1.103 0-2 .897-2 2s.897 2 2 2h5c1.103 0 2-.897 2-2s-.897-2-2-2z" fill="#e6e9ed"/><path d="m7.25 45h-5c-1.103 0-2 .897-2 2s.897 2 2 2h5c1.103 0 2-.897 2-2s-.897-2-2-2z" fill="#e6e9ed"/><path d="m7.25 36h-5c-1.103 0-2 .897-2 2s.897 2 2 2h5c1.103 0 2-.897 2-2s-.897-2-2-2z" fill="#e6e9ed"/><path d="m7.25 27h-5c-1.103 0-2 .897-2 2s.897 2 2 2h5c1.103 0 2-.897 2-2s-.897-2-2-2z" fill="#e6e9ed"/><path d="m56.75 50.5c.55 0 1-.45 1-1l-14.136-24.5c-.01-.018-.027-.027-.039-.044-.038-.058-.087-.105-.137-.155-.047-.045-.09-.091-.144-.126-.018-.012-.028-.031-.047-.042-.039-.022-.082-.024-.122-.041-.063-.026-.123-.05-.189-.063-.063-.012-.125-.014-.189-.013-.063 0-.125.001-.188.013-.067.013-.128.038-.191.064-.039.016-.081.018-.119.04-.019.011-.028.029-.046.041-.055.036-.1.082-.146.129-.05.049-.098.096-.135.152-.011.017-.028.027-.039.044l-14.713 25.501z" fill="#f5f7fa"/></svg>