<svg height="512" viewBox="0 0 512 512" width="512" xmlns="http://www.w3.org/2000/svg"><g><g fill="#57a4ff"><path d="m224 16h-80l8 24h64z"/><path d="m436 136h-248a19.994 19.994 0 0 0 -20 20v28h288v-28a19.994 19.994 0 0 0 -20-20z"/></g><g fill="#004fac"><path d="m152 472a8 8 0 0 0 8 8h48a8 8 0 0 0 0-16h-48a8 8 0 0 0 -8 8z"/><path d="m436 128h-116v-92a28.031 28.031 0 0 0 -28-28h-216a28.031 28.031 0 0 0 -28 28v440a28.031 28.031 0 0 0 28 28h216a28.031 28.031 0 0 0 28-28v-92h116a28.031 28.031 0 0 0 28-28v-200a28.031 28.031 0 0 0 -28-28zm-223.1-104-2.67 8h-52.46l-2.67-8zm91.1 452a12.01 12.01 0 0 1 -12 12h-216a12.01 12.01 0 0 1 -12-12v-440a12.01 12.01 0 0 1 12-12h62.23l6.18 18.53a8 8 0 0 0 7.59 5.47h64a8 8 0 0 0 7.59-5.47l6.18-18.53h62.23a12.01 12.01 0 0 1 12 12v92h-116a28.031 28.031 0 0 0 -28 28v200a28.031 28.031 0 0 0 28 28h116zm144-120a12.01 12.01 0 0 1 -12 12h-248a12.01 12.01 0 0 1 -12-12v-164h272zm0-180h-272v-20a12.01 12.01 0 0 1 12-12h248a12.01 12.01 0 0 1 12 12z"/><path d="m200 152h-8a8 8 0 0 0 0 16h8a8 8 0 0 0 0-16z"/><path d="m232 152h-8a8 8 0 0 0 0 16h8a8 8 0 0 0 0-16z"/><path d="m264 152h-8a8 8 0 0 0 0 16h8a8 8 0 0 0 0-16z"/></g></g></svg>