<svg height="512" viewBox="0 0 64 64" width="512" xmlns="http://www.w3.org/2000/svg"><g id="schedule-smartphone-calendar-schedule-organize-plan"><path d="m60.94 23.06a1.983 1.983 0 0 1 -.58 1.41l-28.29 28.29-7.07 4.24 2.4-4 1.84-3.07 28.29-28.29a2 2 0 0 1 3.41 1.42z" fill="#bddbff"/><path d="m30 7 1-4h-22l1 4z" fill="#bddbff"/><path d="m10 19h20v11h-20z" fill="#bddbff"/><g fill="#57a4ff"><path d="m10 31h20a1 1 0 0 0 1-1v-16a1 1 0 0 0 -1-1h-3v-1h-2v1h-4v-1h-2v1h-4v-1h-2v1h-3a1 1 0 0 0 -1 1v16a1 1 0 0 0 1 1zm1-2v-9h18v9zm2-14v1h2v-1h4v1h2v-1h4v1h2v-1h2v3h-18v-3z"/><path d="m61.06 20.94a3.066 3.066 0 0 0 -4.24 0l-18.82 18.82v-32.76a5 5 0 0 0 -5-5h-26a5 5 0 0 0 -5 5v50a5 5 0 0 0 5 5h26a5 5 0 0 0 5-5v-8.76l23.06-23.06a3 3 0 0 0 0-4.24zm-31.34-16.94-.5 2h-18.44l-.5-2zm6.28 53a3.009 3.009 0 0 1 -3 3h-26a3.009 3.009 0 0 1 -3-3v-50a3.009 3.009 0 0 1 3-3h1.22l.81 3.24a1 1 0 0 0 .97.76h20a1 1 0 0 0 .97-.76l.81-3.24h1.22a3.009 3.009 0 0 1 3 3v34.76l-5 5v-.76h-22v2h20.76l-1.22 1.22a1.462 1.462 0 0 0 -.16.19l-1.55 2.59h-17.83v2h16.63l-1.49 2.49a1.014 1.014 0 0 0 .15 1.22 1.008 1.008 0 0 0 1.22.15l7.08-4.25a.9.9 0 0 0 .19-.15l3.22-3.22zm23.65-33.23-28.2 28.19-3.53 2.12 2.12-3.53 28.19-28.2a1.027 1.027 0 0 1 1.42 0 1.008 1.008 0 0 1 0 1.42z"/><path d="m9 34h4v2h-4z"/><path d="m15 34h16v2h-16z"/><path d="m9 40h22v2h-22z"/></g></g></svg>